# xmcd CD database file
#
# Track frame offsets:
#	150
#	24741
#	70152
#	92401
#	110307
#	147620
#	180984
#	216825
#	260522
#	289353
#
# Disc length: 4324 seconds
#
# Revision: 0
# Processed by: cddbd v1.5.2PL0 Copyright (c) Steve Scherf et al.
# Submitted via: CDex 1.70beta2
#
DISCID=9410e20a
DTITLE=Unit X - Rated X
DYEAR=1997
DGENRE=Jazz
TTITLE0=The Norm
TTITLE1=Who are you?
TTITLE2=Bird Brain
TTITLE3=Inside Out
TTITLE4=Ryokam
TTITLE5=CMW
TTITLE6=Apeiron
TTITLE7=Hakuin
TTITLE8=Hablo
TTITLE9=A+B+C+D
EXTD=YEAR: 1997
EXTT0=
EXTT1=
EXTT2=
EXTT3=
EXTT4=
EXTT5=
EXTT6=
EXTT7=
EXTT8=
EXTT9=
PLAYORDER=
